
Complete name               : Eye.for.Eye.2008.SWESUB.DVDRip.XviD.-Zen_Bud.avi
Format                           : AVI
File size                        : 706 MiB
Duration                         : 1h 19mn
Overall bit rate                 : 1 237 Kbps


Video

Format                           : MPEG-4 Visual
Codec ID/Hint                    : XviD
Duration                         : 1h 19mn
Bit rate                         : 1 100 Kbps
Width                            : 720 pixels
Height                           : 576 pixels
Display aspect ratio             : 5:4
Stream size                      : 627 MiB (89%)
Writing library                  : XviD 1.2.1 (UTC 2008-12-04)

Audio

Format                           : MPEG Audio
Codec ID/Hint                    : MP3
Duration                         : 1h 19mn
Bit rate                         : 128 Kbps
Channel(s)                       : 2 channels
Sampling rate                    : 44.1 KHz
Stream size                      : 73.0 MiB (10%)
Writing library                  : LAME3.98.2

